<?xml version="1.0" encoding="iso-8859-1"?>
<!DOCTYPE svg PUBLIC "-//W3C//DTD SVG 1.1//EN" "http://www.w3.org/Graphics/SVG/1.1/DTD/svg11.dtd">
<svg 
 version="1.1" xmlns="http://www.w3.org/2000/svg" xmlns:xlink="http://www.w3.org/1999/xlink" x="0px" y="0px" width="512px"
	 height="512px" viewBox="0 0 512 512" style="enable-background:new 0 0 512 512;" xml:space="preserve"
><g id="afcae5a789ccd549f9c6e2a2f81bf3ca"><g></g><g fill="#8d74b1"><path style="display: inline; fill-rule: evenodd; clip-rule: evenodd;" d="M470.019,467.08c0,0-79.595-9.008-121.378-30.496
		c-22.667-11.659-19.953-42.188-19.953-42.188s10.186-52.958-30.946-51.066c-49.161,2.268-48.471,68.566-48.471,68.566
		s-37.893,30.086-82.333,53.407C116.825,491.604,59.482,511.5,59.482,511.5s0.338-59.746,9.74-118.611
		c8.747-54.721,26.606-108.866,26.606-108.866s29.727-5.5,55.114-17.637c20.531-9.82,37.76-26.78,37.76-26.78l25.575-52.495
		c0,0-34.388,5.281-68.198,19.392c-26.55,11.087-54.292,31.754-54.292,31.754l-49.806,91.537l35.67-275.79l43.748-4.19
		c0,0,28.804-44.765,139.917-49.098c92.79-3.626,133.323,39.683,133.323,39.683s66.595,70.58,49.575,155.922
		c-4.599,23.053-18.775,65.081-26.689,97.125c-6.033,24.438-6.73,43.071-6.73,43.071s1.86,42.922,16.232,74.607
		C442.238,444.669,470.019,467.08,470.019,467.08z"></path></g></g></svg>