<svg version="1.0" xmlns="http://www.w3.org/2000/svg" width="166.667" height="156" viewBox="0 0 125 117"><g fill="#ffffff"><path d="M4 13.5V21h21v-2.5c0-2.3.3-2.5 5-2.5h5v23h-5c-4.7 0-5-.2-5-2.5V34H4v15h21v-2.5c0-2.4.2-2.5 6.5-2.5H38V29h7.5c7.3 0 7.5.1 7.5 2.5V34h22v-2.5c0-2.3.4-2.5 4.5-2.5H84v56h-4.5c-4.1 0-4.5-.2-4.5-2.5V80H53v2.5c0 2.4-.2 2.5-7.5 2.5H38V72h-6.5c-6.3 0-6.5-.1-6.5-2.5V67H4v15h21v-2.5c0-2.3.3-2.5 5-2.5h5v23h-5c-4.7 0-5-.2-5-2.5V95H4v15h21v-2.5c0-2.4.2-2.5 6.5-2.5H38V90h7.5c7.3 0 7.5.1 7.5 2.5V95h22v-2.5c0-2.4.2-2.5 6.5-2.5H88V60h6c5.7 0 6 .1 6 2.5V65h21V50h-21v2.5c0 2.4-.3 2.5-6 2.5h-6V24h-6.5c-6.3 0-6.5-.1-6.5-2.5V19H53v2.5c0 2.4-.2 2.5-7.5 2.5H38V11h-6.5c-6.3 0-6.5-.1-6.5-2.5V6H4v7.5z"/></g></svg>