<?xml version="1.0" encoding="iso-8859-1"?>
<!DOCTYPE svg PUBLIC "-//W3C//DTD SVG 1.1//EN" "http://www.w3.org/Graphics/SVG/1.1/DTD/svg11.dtd">
<svg 
 version="1.1" xmlns="http://www.w3.org/2000/svg" xmlns:xlink="http://www.w3.org/1999/xlink" x="0px" y="0px" width="512px"
	 height="512px" viewBox="0 0 512 512" style="enable-background:new 0 0 512 512;" xml:space="preserve"
><g id="afcae5a789ccd549f9c6e2a2f8163cbd"><g></g><g fill="#ffffff"><path style="display: inline;" d="M431.463,306.754c-0.262-0.265-13.273-13.274-32.216-32.216c0.162-0.151,0.348-0.255,0.506-0.41
		c7.792-7.791,7.585-20.745-0.458-28.788l-28.845-28.846c52.61-61.811,49.733-154.978-8.644-213.353
		c-3.521-3.521-9.23-3.522-12.755,0.002c-3.517,3.517-3.517,9.23,0,12.75c51.34,51.336,54.197,133.065,8.594,187.795l-31.459-31.459
		c-8.043-8.04-21-8.246-28.788-0.454c-0.155,0.156-0.259,0.342-0.41,0.504c-26.555-26.557-46.509-46.514-46.839-46.837
		c-46.836-46.839-122.773-46.839-169.612,0c-46.84,46.837-46.84,122.775,0,169.614c45.854,45.855,119.59,46.792,166.618,2.85
		l11.846,11.846c-43.941,47.025-43.009,120.764,2.85,166.619c46.839,46.839,122.773,46.839,169.612,0
		C478.303,429.53,478.303,353.593,431.463,306.754z M206.283,227.795c8.047,8.043,8.047,21.199,0,29.246
		c-8.039,8.039-21.199,8.039-29.242,0c-8.043-8.047-21.203-8.047-29.243,0c-8.043,8.039-21.203,8.039-29.246,0
		c-8.043-8.047-8.043-21.203,0-29.246c8.043-8.04,8.043-21.2,0-29.243c-8.043-8.043-8.043-21.205,0-29.247
		c8.043-8.041,21.203-8.041,29.246,0c8.04,8.042,21.2,8.042,29.243,0c8.043-8.041,21.203-8.041,29.242,0
		c8.047,8.042,8.047,21.204,0,29.247C198.244,206.595,198.244,219.755,206.283,227.795z M270.623,409.108
		c-12.114-12.114-12.114-31.751,0-43.865c12.11-12.114,31.755-12.114,43.866,0c12.11,12.114,12.11,31.751,0,43.865
		C302.378,421.223,282.733,421.223,270.623,409.108z M372.978,467.598c-12.114,12.11-31.755,12.11-43.865,0
		c-12.114-12.114-12.114-31.755,0-43.866c12.11-12.114,31.751-12.114,43.865,0C385.092,435.843,385.092,455.483,372.978,467.598z
		 M387.598,394.489c-12.111,12.11-31.752,12.11-43.866,0c-12.114-12.114-12.114-31.756,0-43.866
		c12.114-12.114,31.755-12.114,43.866,0C399.712,362.733,399.712,382.375,387.598,394.489z"></path></g></g></svg>