<svg xmlns="http://www.w3.org/2000/svg" width="361" height="306"><path fill="#FFF" d="M0 0h361v306H0z"/><g stroke-miterlimit="10" fill="none"><path d="M.5.5h360v257H.5z" stroke="#000" stroke-opacity="0" fill="#fff" fill-opacity="0"/><path d="M175.5 147l-48.083 44.548A68 63 0 0 1 175.5 84v63z" fill="#cc5200"/><path d="M175.5 142v5l-48.083 44.548v-5L175.5 142zM175.5 79v68-68z" fill="#cc5200"/><path d="M175.5 142l-48.083 44.548A68 63 0 0 1 175.5 79v63z" stroke="#fff" stroke-opacity="0" fill="#f60"/><path d="M113.5 118.5l-18-7h-8" stroke="#000" stroke-opacity=".2"/><path d="M175.5 147V84a68 63 0 1 1-48.083 107.548L175.5 147zM175.5 142v5-68 63z" fill="#cc0c00"/><path d="M127.417 186.548v5L175.5 147v-5l-48.083 44.548z" fill="#cc0c00"/><path d="M175.5 142V79a68 63 0 1 1-48.083 107.548L175.5 142z" stroke="#fff" stroke-opacity="0" fill="#ff0f00"/><path d="M238.5 166.5l18 7h8" stroke="#000" stroke-opacity=".2"/><text font-family="Verdana" font-size="11" style="white-space:pre" fill="#000" transform="translate(268 173)"><tspan x=".5" y="7.48" fill="rgba(0,0,0,1)">Lucina: 62.5%</tspan></text><text font-family="Verdana" font-size="11" style="white-space:pre" fill="#000" transform="translate(83 111)"><tspan x="-65.5" y="7.48" fill="rgba(0,0,0,1)">Ike: 37.5%</tspan></text><text font-family="Verdana" font-size="13" font-weight="bold" style="white-space:pre" fill="#000" transform="translate(176 20)"><tspan x="-51.5" y="8.84" fill="rgba(0,0,0,1)">Character Use</tspan></text></g><g transform="translate(0 258)" stroke-miterlimit="10" fill="none"><path d="M5.5.5h340v37H5.5z" stroke="#000" stroke-opacity="0" fill="#fff" fill-opacity="0"/><circle r="8" transform="translate(66 19)" stroke="#ff0f00" fill="#ff0f00"/><text font-family="Verdana" font-size="11" style="white-space:pre" fill="#000" transform="translate(79 18)"><tspan x=".5" y="7.48" fill="rgba(0,0,0,1)">Lucina</tspan></text><text font-family="Verdana" font-size="11" style="white-space:pre" fill="#000" transform="translate(123 18)"><tspan x=".5" y="7.48" fill="rgba(0,0,0,1)">5</tspan></text><rect x="16" rx="0" ry="0" width="59" height="18" transform="translate(58 11)" stroke-width="0" fill="#fff" fill-opacity=".005"/><circle r="8" transform="translate(199 19)" stroke="#f60" fill="#f60"/><text font-family="Verdana" font-size="11" style="white-space:pre" fill="#000" transform="translate(212 18)"><tspan x=".5" y="7.48" fill="rgba(0,0,0,1)">Ike</tspan></text><text font-family="Verdana" font-size="11" style="white-space:pre" fill="#000" transform="translate(239 18)"><tspan x=".5" y="7.48" fill="rgba(0,0,0,1)">3</tspan></text><rect x="16" rx="0" ry="0" width="42" height="18" transform="translate(191 11)" stroke-width="0" fill="#fff" fill-opacity=".005"/></g></svg>