<svg xmlns="http://www.w3.org/2000/svg" width="387" height="276"><path fill="#FFF" d="M0 0h387v276H0z"/><g stroke-miterlimit="10" fill="none"><path d="M.5.5h386v227H.5z" stroke="#000" stroke-opacity="0" fill="#fff" fill-opacity="0"/><path d="M216 131.906l-50.23 27a58 54 0 0 1 50.23-81v54z" fill="#cc5200"/><path d="M216 126.906v5l-50.23 27v-5l50.23-27zm0-54v59-59z" fill="#cc5200"/><path d="M216 126.906l-50.23 27a58 54 0 0 1 50.23-81v54z" stroke="#fff" stroke-opacity="0" fill="#f60"/><path d="M166.5 100.5l-17-10h-8" stroke="#000" stroke-opacity=".2"/><path d="M216 131.906v-54a58 54 0 1 1-50.23 81l50.23-27zm0-5v5-59 54z" fill="#cc0c00"/><path d="M165.77 153.906v5l50.23-27v-5l-50.23 27z" fill="#cc0c00"/><path d="M216 126.906v-54a58 54 0 1 1-50.23 81l50.23-27z" stroke="#fff" stroke-opacity="0" fill="#ff0f00"/><path d="M266.5 154.5l17 9h8" stroke="#000" stroke-opacity=".2"/><text font-family="Verdana" font-size="11" style="white-space:pre" fill="#000" transform="translate(295 163)"><tspan x=".5" y="7.48" fill="rgba(0,0,0,1)">Pichu: 66.7%</tspan></text><text font-family="Verdana" font-size="11" style="white-space:pre" fill="#000" transform="translate(137 90)"><tspan x="-125.29" y="7.48" fill="rgba(0,0,0,1)">Banjo-Kazooie: 33.3%</tspan></text><text font-family="Verdana" font-size="13" font-weight="bold" style="white-space:pre" fill="#000" transform="translate(216 20)"><tspan x="-51.25" y="8.84" fill="rgba(0,0,0,1)">Character Use</tspan></text></g><g transform="translate(0 228)" stroke-miterlimit="10" fill="none"><path d="M15.5.5h401v37h-401z" stroke="#000" stroke-opacity="0" fill="#fff" fill-opacity="0"/><circle r="8" transform="translate(60 19)" stroke="#ff0f00" fill="#ff0f00"/><text font-family="Verdana" font-size="11" style="white-space:pre" fill="#000" transform="translate(73 18)"><tspan x=".5" y="7.48" fill="rgba(0,0,0,1)">Pichu</tspan></text><text font-family="Verdana" font-size="11" style="white-space:pre" fill="#000" transform="translate(107 18)"><tspan x=".5" y="7.48" fill="rgba(0,0,0,1)">2</tspan></text><rect x="16" rx="0" ry="0" width="49.313" height="18" transform="translate(52 11)" stroke-width="0" fill="#fff" fill-opacity=".005"/><circle r="8" transform="translate(231 19)" stroke="#f60" fill="#f60"/><text font-family="Verdana" font-size="11" style="white-space:pre" fill="#000" transform="translate(244 18)"><tspan x=".5" y="7.48" fill="rgba(0,0,0,1)">Banjo-Kazooie</tspan></text><text font-family="Verdana" font-size="11" style="white-space:pre" fill="#000" transform="translate(329 18)"><tspan x=".5" y="7.48" fill="rgba(0,0,0,1)">1</tspan></text><rect x="16" rx="0" ry="0" width="99.5" height="18" transform="translate(223 11)" stroke-width="0" fill="#fff" fill-opacity=".005"/></g></svg>