<svg xmlns="http://www.w3.org/2000/svg" width="387" height="276"><path fill="#FFF" d="M0 0h387v276H0z"/><g stroke-miterlimit="10" fill="none"><path d="M.5.5h386v275H.5z" stroke="#000" stroke-opacity="0" fill="#fff" fill-opacity="0"/><path d="M78.5 40.5h298v175h-298v-175z" stroke="#000" stroke-opacity="0" fill="#fff" fill-opacity="0"/><path d="M125.5 215.5v5" stroke="#000" stroke-opacity=".3"/><path d="M75.5 215.5h3v-175" stroke="#000" stroke-opacity=".1"/><path d="M224.5 215.5v5" stroke="#000" stroke-opacity=".3"/><path d="M174.5 215.5h3v-175" stroke="#000" stroke-opacity=".1"/><path d="M323.5 215.5v5" stroke="#000" stroke-opacity=".3"/><path d="M273.5 215.5h3v-175m97 175h3v-175" stroke="#000" stroke-opacity=".1"/><path d="M69.5 215.5h6" stroke="#000" stroke-opacity=".3"/><path d="M75.5 215.5h301" stroke="#000" stroke-opacity=".1"/><path d="M69.5 180.5h6" stroke="#000" stroke-opacity=".3"/><path d="M75.5 180.5h301" stroke="#000" stroke-opacity=".1"/><path d="M69.5 145.5h6" stroke="#000" stroke-opacity=".3"/><path d="M75.5 145.5h301" stroke="#000" stroke-opacity=".1"/><path d="M69.5 110.5h6" stroke="#000" stroke-opacity=".3"/><path d="M75.5 110.5h301" stroke="#000" stroke-opacity=".1"/><path d="M69.5 75.5h6" stroke="#000" stroke-opacity=".3"/><path d="M75.5 75.5h301" stroke="#000" stroke-opacity=".1"/><path d="M69.5 40.5h6" stroke="#000" stroke-opacity=".3"/><path d="M75.5 40.5h301" stroke="#000" stroke-opacity=".1"/><path d="M50.5.5l99 87.5 99-28" transform="translate(75 40)" clip-path="url(#a)" stroke="#67b7dc" stroke-opacity=".9" stroke-linejoin="round"/><path d="M75.5 215.5h301" stroke="#000" stroke-opacity=".2"/><path d="M75.5 215.5h298m-298-175v175" stroke="#000" stroke-opacity=".3"/><circle r="4" transform="translate(125 40)" stroke="#67b7dc" stroke-opacity="0" stroke-width="2" fill="#67b7dc"/><circle r="4" transform="translate(224 128)" stroke="#67b7dc" stroke-opacity="0" stroke-width="2" fill="#67b7dc"/><circle r="4" transform="translate(323 100)" stroke="#67b7dc" stroke-opacity="0" stroke-width="2" fill="#67b7dc"/><text font-family="Verdana" font-size="15" font-weight="bold" style="white-space:pre" fill="#000" transform="translate(226 20)"><tspan x="-85.39" y="10.2" fill="rgba(0,0,0,1)">Win Ratio over Time</tspan></text><text font-family="Verdana" font-size="11" style="white-space:pre" fill="#000" transform="translate(124.667 232.5)"><tspan x="-32.97" y="7.48" fill="rgba(0,0,0,1)">03/05/2019</tspan></text><text font-family="Verdana" font-size="11" style="white-space:pre" fill="#000" transform="translate(223.667 232.5)"><tspan x="-32.97" y="7.48" fill="rgba(0,0,0,1)">07/05/2019</tspan></text><text font-family="Verdana" font-size="11" style="white-space:pre" fill="#000" transform="translate(322.667 232.5)"><tspan x="-32.97" y="7.48" fill="rgba(0,0,0,1)">23/05/2019</tspan></text><text font-family="Verdana" font-size="12" font-weight="bold" style="white-space:pre" fill="#000" transform="translate(224 258)"><tspan x="-15.71" y="7.66" fill="rgba(0,0,0,1)">Date</tspan></text><text font-family="Verdana" font-size="11" style="white-space:pre" fill="#000" transform="translate(63 213.813)"><tspan x="-19.33" y="7.48" fill="rgba(0,0,0,1)">0%</tspan></text><text font-family="Verdana" font-size="11" style="white-space:pre" fill="#000" transform="translate(63 178.813)"><tspan x="-26.32" y="7.48" fill="rgba(0,0,0,1)">20%</tspan></text><text font-family="Verdana" font-size="11" style="white-space:pre" fill="#000" transform="translate(63 143.813)"><tspan x="-26.32" y="7.48" fill="rgba(0,0,0,1)">40%</tspan></text><text font-family="Verdana" font-size="11" style="white-space:pre" fill="#000" transform="translate(63 108.813)"><tspan x="-26.32" y="7.48" fill="rgba(0,0,0,1)">60%</tspan></text><text font-family="Verdana" font-size="11" style="white-space:pre" fill="#000" transform="translate(63 73.813)"><tspan x="-26.32" y="7.48" fill="rgba(0,0,0,1)">80%</tspan></text><text font-family="Verdana" font-size="11" style="white-space:pre" fill="#000" transform="translate(63 38.813)"><tspan x="-33.32" y="7.48" fill="rgba(0,0,0,1)">100%</tspan></text><text font-family="Verdana" font-size="12" font-weight="bold" style="white-space:pre" fill="#000" transform="rotate(-90 70.5 57.5)"><tspan x="-15.6" y="7.66" fill="rgba(0,0,0,1)">W/R</tspan></text></g><clipPath xmlns="http://www.w3.org/2000/svg" id="a"><rect width="298" height="175" rx="0" ry="0" stroke-width="0" fill="none" fill-opacity="0"/></clipPath></svg>