<?xml version="1.0" encoding="iso-8859-1"?>
<!DOCTYPE svg PUBLIC "-//W3C//DTD SVG 1.1//EN" "http://www.w3.org/Graphics/SVG/1.1/DTD/svg11.dtd">
<svg 
 version="1.1" xmlns="http://www.w3.org/2000/svg" xmlns:xlink="http://www.w3.org/1999/xlink" x="0px" y="0px" width="512px"
	 height="512px" viewBox="0 0 512 512" style="enable-background:new 0 0 512 512;" xml:space="preserve"
><g id="afcae5a789ccd549f9c6e2a2f80e80b2"><g></g><path style="display: inline; fill: #010101;" d="M505.704,421.852c0,49.519-40.142,89.648-89.64,89.648
		c-49.519,0-89.664-40.13-89.664-89.648c0-1.634,0.162-3.206,0.252-4.82l-177.463-90.477c-14.896,11.038-33.27,17.659-53.241,17.659
		c-49.511,0-89.652-40.154-89.652-89.673c0-49.498,40.142-89.632,89.652-89.632c22.178,0,42.434,8.1,58.089,21.418l172.777-88.096
		c-0.239-2.65-0.414-5.336-0.414-8.08c0-49.519,40.146-89.652,89.664-89.652c49.498,0,89.64,40.134,89.64,89.652
		c0,49.498-40.142,89.652-89.64,89.652c-22.077,0-42.235-8.022-57.858-21.227l-173,88.209c0.224,2.572,0.386,5.145,0.386,7.754
		c0,4.666-0.463,9.193-1.146,13.668l171.387,87.368c15.924-14.473,37.009-23.382,60.231-23.382
		C465.563,332.195,505.704,372.35,505.704,421.852z"></path></g></svg>